<svg id="mermaid-svg" width="100%" xmlns="http://www.w3.org/2000/svg" class="flowchart" style="max-width: 2019.75px;" viewBox="0 0 2019.75 1031" role="graphics-document document" aria-roledescription="flowchart-v2" xmlns:xlink="http://www.w3.org/1999/xlink"><style xmlns="http://www.w3.org/1999/xhtml">@import url("https://cdnjs.cloudflare.com/ajax/libs/font-awesome/6.7.2/css/all.min.css");</style><style>#mermaid-svg{font-family:"trebuchet ms",verdana,arial,sans-serif;font-size:16px;fill:#333;}@keyframes edge-animation-frame{from{stroke-dashoffset:0;}}@keyframes dash{to{stroke-dashoffset:0;}}#mermaid-svg .edge-animation-slow{stroke-dasharray:9,5!important;stroke-dashoffset:900;animation:dash 50s linear infinite;stroke-linecap:round;}#mermaid-svg .edge-animation-fast{stroke-dasharray:9,5!important;stroke-dashoffset:900;animation:dash 20s linear infinite;stroke-linecap:round;}#mermaid-svg .error-icon{fill:#552222;}#mermaid-svg .error-text{fill:#552222;stroke:#552222;}#mermaid-svg .edge-thickness-normal{stroke-width:1px;}#mermaid-svg .edge-thickness-thick{stroke-width:3.5px;}#mermaid-svg .edge-pattern-solid{stroke-dasharray:0;}#mermaid-svg .edge-thickness-invisible{stroke-width:0;fill:none;}#mermaid-svg .edge-pattern-dashed{stroke-dasharray:3;}#mermaid-svg .edge-pattern-dotted{stroke-dasharray:2;}#mermaid-svg .marker{fill:#333333;stroke:#333333;}#mermaid-svg .marker.cross{stroke:#333333;}#mermaid-svg svg{font-family:"trebuchet ms",verdana,arial,sans-serif;font-size:16px;}#mermaid-svg p{margin:0;}#mermaid-svg .label{font-family:"trebuchet ms",verdana,arial,sans-serif;color:#333;}#mermaid-svg .cluster-label text{fill:#333;}#mermaid-svg .cluster-label span{color:#333;}#mermaid-svg .cluster-label span p{background-color:transparent;}#mermaid-svg .label text,#mermaid-svg span{fill:#333;color:#333;}#mermaid-svg .node rect,#mermaid-svg .node circle,#mermaid-svg .node ellipse,#mermaid-svg .node polygon,#mermaid-svg .node path{fill:#ECECFF;stroke:#9370DB;stroke-width:1px;}#mermaid-svg .rough-node .label text,#mermaid-svg .node .label text,#mermaid-svg .image-shape .label,#mermaid-svg .icon-shape .label{text-anchor:middle;}#mermaid-svg .node .katex path{fill:#000;stroke:#000;stroke-width:1px;}#mermaid-svg .rough-node .label,#mermaid-svg .node .label,#mermaid-svg .image-shape .label,#mermaid-svg .icon-shape .label{text-align:center;}#mermaid-svg .node.clickable{cursor:pointer;}#mermaid-svg .root .anchor path{fill:#333333!important;stroke-width:0;stroke:#333333;}#mermaid-svg .arrowheadPath{fill:#333333;}#mermaid-svg .edgePath .path{stroke:#333333;stroke-width:2.0px;}#mermaid-svg .flowchart-link{stroke:#333333;fill:none;}#mermaid-svg .edgeLabel{background-color:rgba(232,232,232, 0.8);text-align:center;}#mermaid-svg .edgeLabel p{background-color:rgba(232,232,232, 0.8);}#mermaid-svg .edgeLabel rect{opacity:0.5;background-color:rgba(232,232,232, 0.8);fill:rgba(232,232,232, 0.8);}#mermaid-svg .labelBkg{background-color:rgba(232, 232, 232, 0.5);}#mermaid-svg .cluster rect{fill:#ffffde;stroke:#aaaa33;stroke-width:1px;}#mermaid-svg .cluster text{fill:#333;}#mermaid-svg .cluster span{color:#333;}#mermaid-svg div.mermaidTooltip{position:absolute;text-align:center;max-width:200px;padding:2px;font-family:"trebuchet ms",verdana,arial,sans-serif;font-size:12px;background:hsl(80, 100%, 96.2745098039%);border:1px solid #aaaa33;border-radius:2px;pointer-events:none;z-index:100;}#mermaid-svg .flowchartTitleText{text-anchor:middle;font-size:18px;fill:#333;}#mermaid-svg rect.text{fill:none;stroke-width:0;}#mermaid-svg .icon-shape,#mermaid-svg .image-shape{background-color:rgba(232,232,232, 0.8);text-align:center;}#mermaid-svg .icon-shape p,#mermaid-svg .image-shape p{background-color:rgba(232,232,232, 0.8);padding:2px;}#mermaid-svg .icon-shape rect,#mermaid-svg .image-shape rect{opacity:0.5;background-color:rgba(232,232,232, 0.8);fill:rgba(232,232,232, 0.8);}#mermaid-svg .label-icon{display:inline-block;height:1em;overflow:visible;vertical-align:-0.125em;}#mermaid-svg .node .label-icon path{fill:currentColor;stroke:revert;stroke-width:revert;}#mermaid-svg :root{--mermaid-font-family:"trebuchet ms",verdana,arial,sans-serif;}</style><g><marker id="mermaid-svg_flowchart-v2-pointEnd" class="marker flowchart-v2" viewBox="0 0 10 10" refX="5" refY="5" markerUnits="userSpaceOnUse" markerWidth="8" markerHeight="8" orient="auto"><path d="M 0 0 L 10 5 L 0 10 z" class="arrowMarkerPath" style="stroke-width: 1; stroke-dasharray: 1, 0;"/></marker><marker id="mermaid-svg_flowchart-v2-pointStart" class="marker flowchart-v2" viewBox="0 0 10 10" refX="4.5" refY="5" markerUnits="userSpaceOnUse" markerWidth="8" markerHeight="8" orient="auto"><path d="M 0 5 L 10 10 L 10 0 z" class="arrowMarkerPath" style="stroke-width: 1; stroke-dasharray: 1, 0;"/></marker><marker id="mermaid-svg_flowchart-v2-circleEnd" class="marker flowchart-v2" viewBox="0 0 10 10" refX="11" refY="5" markerUnits="userSpaceOnUse" markerWidth="11" markerHeight="11" orient="auto"><circle cx="5" cy="5" r="5" class="arrowMarkerPath" style="stroke-width: 1; stroke-dasharray: 1, 0;"/></marker><marker id="mermaid-svg_flowchart-v2-circleStart" class="marker flowchart-v2" viewBox="0 0 10 10" refX="-1" refY="5" markerUnits="userSpaceOnUse" markerWidth="11" markerHeight="11" orient="auto"><circle cx="5" cy="5" r="5" class="arrowMarkerPath" style="stroke-width: 1; stroke-dasharray: 1, 0;"/></marker><marker id="mermaid-svg_flowchart-v2-crossEnd" class="marker cross flowchart-v2" viewBox="0 0 11 11" refX="12" refY="5.2" markerUnits="userSpaceOnUse" markerWidth="11" markerHeight="11" orient="auto"><path d="M 1,1 l 9,9 M 10,1 l -9,9" class="arrowMarkerPath" style="stroke-width: 2; stroke-dasharray: 1, 0;"/></marker><marker id="mermaid-svg_flowchart-v2-crossStart" class="marker cross flowchart-v2" viewBox="0 0 11 11" refX="-1" refY="5.2" markerUnits="userSpaceOnUse" markerWidth="11" markerHeight="11" orient="auto"><path d="M 1,1 l 9,9 M 10,1 l -9,9" class="arrowMarkerPath" style="stroke-width: 2; stroke-dasharray: 1, 0;"/></marker><g class="root"><g class="clusters"><g class="cluster " id="AUDIT" data-look="classic"><rect style="" x="1038" y="723" width="663.75" height="300"/><g class="cluster-label " transform="translate(1334.3046875, 723)"><foreignObject width="71.140625" height="24"><div xmlns="http://www.w3.org/1999/xhtml" style="display: table-cell; white-space: nowrap; line-height: 1.5; max-width: 200px; text-align: center;"><span class="nodeLabel "><p>Audit Trail</p></span></div></foreignObject></g></g><g class="cluster " id="STORE" data-look="classic"><rect style="" x="1038" y="75" width="328.75" height="628"/><g class="cluster-label " transform="translate(1134.328125, 75)"><foreignObject width="136.09375" height="24"><div xmlns="http://www.w3.org/1999/xhtml" style="display: table-cell; white-space: nowrap; line-height: 1.5; max-width: 200px; text-align: center;"><span class="nodeLabel "><p>Storage (auditable)</p></span></div></foreignObject></g></g><g class="cluster " id="TRANSFORM" data-look="classic"><rect style="" x="368" y="8" width="620" height="404"/><g class="cluster-label " transform="translate(578, 8)"><foreignObject width="200" height="48"><div xmlns="http://www.w3.org/1999/xhtml" style="display: table; white-space: break-spaces; line-height: 1.5; max-width: 200px; text-align: center; width: 200px;"><span class="nodeLabel "><p>Transformation (reproducible)</p></span></div></foreignObject></g></g><g class="cluster " id="ORIGIN" data-look="classic"><rect style="" x="8" y="25" width="310" height="690"/><g class="cluster-label " transform="translate(102.09375, 25)"><foreignObject width="121.8125" height="24"><div xmlns="http://www.w3.org/1999/xhtml" style="display: table-cell; white-space: nowrap; line-height: 1.5; max-width: 200px; text-align: center;"><span class="nodeLabel "><p>Origin (verifiable)</p></span></div></foreignObject></g></g></g><g class="edgePaths"><path d="M185.726,309L207.771,271.167C229.817,233.333,273.909,157.667,300.121,119.833C326.333,82,334.667,82,343,82C351.333,82,359.667,82,367.333,82C375,82,382,82,385.5,82L389,82" id="L_O1_T1_0" class=" edge-thickness-normal edge-pattern-solid edge-thickness-normal edge-pattern-solid flowchart-link" style=";" data-edge="true" data-et="edge" data-id="L_O1_T1_0" data-points="W3sieCI6MTg1LjcyNTU2MzkwOTc3NDQ1LCJ5IjozMDl9LHsieCI6MzE4LCJ5Ijo4Mn0seyJ4IjozNDMsInkiOjgyfSx7IngiOjM2OCwieSI6ODJ9LHsieCI6MzkzLCJ5Ijo4Mn1d" marker-end="url(#mermaid-svg_flowchart-v2-pointEnd)"/><path d="M185.726,437L207.771,399.167C229.817,361.333,273.909,285.667,300.121,247.833C326.333,210,334.667,210,343,210C351.333,210,359.667,210,367.333,210C375,210,382,210,385.5,210L389,210" id="L_O2_T2_0" class=" edge-thickness-normal edge-pattern-solid edge-thickness-normal edge-pattern-solid flowchart-link" style=";" data-edge="true" data-et="edge" data-id="L_O2_T2_0" data-points="W3sieCI6MTg1LjcyNTU2MzkwOTc3NDQ1LCJ5Ijo0Mzd9LHsieCI6MzE4LCJ5IjoyMTB9LHsieCI6MzQzLCJ5IjoyMTB9LHsieCI6MzY4LCJ5IjoyMTB9LHsieCI6MzkzLCJ5IjoyMTB9XQ==" marker-end="url(#mermaid-svg_flowchart-v2-pointEnd)"/><path d="M185.726,565L207.771,527.167C229.817,489.333,273.909,413.667,300.121,375.833C326.333,338,334.667,338,343,338C351.333,338,359.667,338,367.333,338C375,338,382,338,385.5,338L389,338" id="L_O3_T3_0" class=" edge-thickness-normal edge-pattern-solid edge-thickness-normal edge-pattern-solid flowchart-link" style=";" data-edge="true" data-et="edge" data-id="L_O3_T3_0" data-points="W3sieCI6MTg1LjcyNTU2MzkwOTc3NDQ1LCJ5Ijo1NjV9LHsieCI6MzE4LCJ5IjozMzh9LHsieCI6MzQzLCJ5IjozMzh9LHsieCI6MzY4LCJ5IjozMzh9LHsieCI6MzkzLCJ5IjozMzh9XQ==" marker-end="url(#mermaid-svg_flowchart-v2-pointEnd)"/><path d="M653,82L657.167,82C661.333,82,669.667,82,682.395,86.364C695.124,90.728,712.249,99.456,720.811,103.82L729.373,108.184" id="L_T1_T4_0" class=" edge-thickness-normal edge-pattern-solid edge-thickness-normal edge-pattern-solid flowchart-link" style=";" data-edge="true" data-et="edge" data-id="L_T1_T4_0" data-points="W3sieCI6NjUzLCJ5Ijo4Mn0seyJ4Ijo2NzgsInkiOjgyfSx7IngiOjczMi45MzY3MDg4NjA3NTk1LCJ5IjoxMTB9XQ==" marker-end="url(#mermaid-svg_flowchart-v2-pointEnd)"/><path d="M653,210L657.167,210C661.333,210,669.667,210,677.364,208.884C685.062,207.767,692.124,205.535,695.655,204.419L699.186,203.302" id="L_T2_T4_0" class=" edge-thickness-normal edge-pattern-solid edge-thickness-normal edge-pattern-solid flowchart-link" style=";" data-edge="true" data-et="edge" data-id="L_T2_T4_0" data-points="W3sieCI6NjUzLCJ5IjoyMTB9LHsieCI6Njc4LCJ5IjoyMTB9LHsieCI6NzAzLCJ5IjoyMDIuMDk2Nzc0MTkzNTQ4Mzh9XQ==" marker-end="url(#mermaid-svg_flowchart-v2-pointEnd)"/><path d="M653,338L657.167,338C661.333,338,669.667,338,691.784,317.502C713.901,297.003,749.803,256.006,767.753,235.508L785.704,215.009" id="L_T3_T4_0" class=" edge-thickness-normal edge-pattern-solid edge-thickness-normal edge-pattern-solid flowchart-link" style=";" data-edge="true" data-et="edge" data-id="L_T3_T4_0" data-points="W3sieCI6NjUzLCJ5IjozMzh9LHsieCI6Njc4LCJ5IjozMzh9LHsieCI6Nzg4LjMzODk4MzA1MDg0NzQsInkiOjIxMn1d" marker-end="url(#mermaid-svg_flowchart-v2-pointEnd)"/><path d="M963,161L967.167,161C971.333,161,979.667,161,988,161C996.333,161,1004.667,161,1013,161C1021.333,161,1029.667,161,1038.896,161C1048.125,161,1058.25,161,1063.313,161L1068.375,161" id="L_T4_S1_0" class=" edge-thickness-normal edge-pattern-solid edge-thickness-normal edge-pattern-solid flowchart-link" style=";" data-edge="true" data-et="edge" data-id="L_T4_S1_0" data-points="W3sieCI6OTYzLCJ5IjoxNjF9LHsieCI6OTg4LCJ5IjoxNjF9LHsieCI6MTAxMywieSI6MTYxfSx7IngiOjEwMzgsInkiOjE2MX0seyJ4IjoxMDcyLjM3NSwieSI6MTYxfV0=" marker-end="url(#mermaid-svg_flowchart-v2-pointEnd)"/><path d="M234.964,387L248.804,394.5C262.643,402,290.321,417,308.327,424.5C326.333,432,334.667,432,343,432C351.333,432,359.667,432,389.667,432C419.667,432,471.333,432,523,432C574.667,432,626.333,432,678,432C729.667,432,781.333,432,833,432C884.667,432,936.333,432,966.333,432C996.333,432,1004.667,432,1013,432C1021.333,432,1029.667,432,1047.441,438.705C1065.214,445.411,1092.429,458.821,1106.036,465.527L1119.643,472.232" id="L_O1_S2_0" class=" edge-thickness-normal edge-pattern-solid edge-thickness-normal edge-pattern-solid flowchart-link" style=";" data-edge="true" data-et="edge" data-id="L_O1_S2_0" data-points="W3sieCI6MjM0Ljk2NDI4NTcxNDI4NTcyLCJ5IjozODd9LHsieCI6MzE4LCJ5Ijo0MzJ9LHsieCI6MzQzLCJ5Ijo0MzJ9LHsieCI6MzY4LCJ5Ijo0MzJ9LHsieCI6NTIzLCJ5Ijo0MzJ9LHsieCI6Njc4LCJ5Ijo0MzJ9LHsieCI6ODMzLCJ5Ijo0MzJ9LHsieCI6OTg4LCJ5Ijo0MzJ9LHsieCI6MTAxMywieSI6NDMyfSx7IngiOjEwMzgsInkiOjQzMn0seyJ4IjoxMTIzLjIzMTQ4MTQ4MTQ4MTUsInkiOjQ3NH1d" marker-end="url(#mermaid-svg_flowchart-v2-pointEnd)"/><path d="M293,460.065L297.167,459.554C301.333,459.043,309.667,458.022,318,457.511C326.333,457,334.667,457,343,457C351.333,457,359.667,457,389.667,457C419.667,457,471.333,457,523,457C574.667,457,626.333,457,678,457C729.667,457,781.333,457,833,457C884.667,457,936.333,457,966.333,457C996.333,457,1004.667,457,1013,457C1021.333,457,1029.667,457,1041.519,459.618C1053.371,462.237,1068.742,467.473,1076.428,470.092L1084.113,472.71" id="L_O2_S2_0" class=" edge-thickness-normal edge-pattern-solid edge-thickness-normal edge-pattern-solid flowchart-link" style=";" data-edge="true" data-et="edge" data-id="L_O2_S2_0" data-points="W3sieCI6MjkzLCJ5Ijo0NjAuMDY0NTE2MTI5MDMyMjZ9LHsieCI6MzE4LCJ5Ijo0NTd9LHsieCI6MzQzLCJ5Ijo0NTd9LHsieCI6MzY4LCJ5Ijo0NTd9LHsieCI6NTIzLCJ5Ijo0NTd9LHsieCI6Njc4LCJ5Ijo0NTd9LHsieCI6ODMzLCJ5Ijo0NTd9LHsieCI6OTg4LCJ5Ijo0NTd9LHsieCI6MTAxMywieSI6NDU3fSx7IngiOjEwMzgsInkiOjQ1N30seyJ4IjoxMDg3Ljg5OTU1MzU3MTQyODcsInkiOjQ3NH1d" marker-end="url(#mermaid-svg_flowchart-v2-pointEnd)"/><path d="M293,566.258L297.167,565.048C301.333,563.839,309.667,561.419,318,560.21C326.333,559,334.667,559,343,559C351.333,559,359.667,559,389.667,559C419.667,559,471.333,559,523,559C574.667,559,626.333,559,678,559C729.667,559,781.333,559,833,559C884.667,559,936.333,559,966.333,559C996.333,559,1004.667,559,1013,559C1021.333,559,1029.667,559,1038.92,557.576C1048.174,556.153,1058.349,553.305,1063.436,551.882L1068.523,550.458" id="L_O3_S2_0" class=" edge-thickness-normal edge-pattern-solid edge-thickness-normal edge-pattern-solid flowchart-link" style=";" data-edge="true" data-et="edge" data-id="L_O3_S2_0" data-points="W3sieCI6MjkzLCJ5Ijo1NjYuMjU4MDY0NTE2MTI5fSx7IngiOjMxOCwieSI6NTU5fSx7IngiOjM0MywieSI6NTU5fSx7IngiOjM2OCwieSI6NTU5fSx7IngiOjUyMywieSI6NTU5fSx7IngiOjY3OCwieSI6NTU5fSx7IngiOjgzMywieSI6NTU5fSx7IngiOjk4OCwieSI6NTU5fSx7IngiOjEwMTMsInkiOjU1OX0seyJ4IjoxMDM4LCJ5Ijo1NTl9LHsieCI6MTA3Mi4zNzUsInkiOjU0OS4zODAyMjgxMzY4ODIxfV0=" marker-end="url(#mermaid-svg_flowchart-v2-pointEnd)"/><path d="M189.169,387L210.641,419C232.113,451,275.056,515,300.695,547C326.333,579,334.667,579,343,579C351.333,579,359.667,579,389.667,579C419.667,579,471.333,579,523,579C574.667,579,626.333,579,678,579C729.667,579,781.333,579,833,579C884.667,579,936.333,579,966.333,579C996.333,579,1004.667,579,1013,579C1021.333,579,1029.667,579,1047.847,583.945C1066.028,588.89,1094.056,598.779,1108.07,603.724L1122.084,608.669" id="L_O1_S3_0" class=" edge-thickness-normal edge-pattern-solid edge-thickness-normal edge-pattern-solid flowchart-link" style=";" data-edge="true" data-et="edge" data-id="L_O1_S3_0" data-points="W3sieCI6MTg5LjE2ODgzMTE2ODgzMTE2LCJ5IjozODd9LHsieCI6MzE4LCJ5Ijo1Nzl9LHsieCI6MzQzLCJ5Ijo1Nzl9LHsieCI6MzY4LCJ5Ijo1Nzl9LHsieCI6NTIzLCJ5Ijo1Nzl9LHsieCI6Njc4LCJ5Ijo1Nzl9LHsieCI6ODMzLCJ5Ijo1Nzl9LHsieCI6OTg4LCJ5Ijo1Nzl9LHsieCI6MTAxMywieSI6NTc5fSx7IngiOjEwMzgsInkiOjU3OX0seyJ4IjoxMTI1Ljg1NTYwMzQ0ODI3NTgsInkiOjYxMH1d" marker-end="url(#mermaid-svg_flowchart-v2-pointEnd)"/><path d="M212.146,515L229.789,529C247.431,543,282.715,571,304.524,585C326.333,599,334.667,599,343,599C351.333,599,359.667,599,389.667,599C419.667,599,471.333,599,523,599C574.667,599,626.333,599,678,599C729.667,599,781.333,599,833,599C884.667,599,936.333,599,966.333,599C996.333,599,1004.667,599,1013,599C1021.333,599,1029.667,599,1041.114,600.683C1052.562,602.366,1067.123,605.733,1074.404,607.416L1081.685,609.099" id="L_O2_S3_0" class=" edge-thickness-normal edge-pattern-solid edge-thickness-normal edge-pattern-solid flowchart-link" style=";" data-edge="true" data-et="edge" data-id="L_O2_S3_0" data-points="W3sieCI6MjEyLjE0NjM0MTQ2MzQxNDY0LCJ5Ijo1MTV9LHsieCI6MzE4LCJ5Ijo1OTl9LHsieCI6MzQzLCJ5Ijo1OTl9LHsieCI6MzY4LCJ5Ijo1OTl9LHsieCI6NTIzLCJ5Ijo1OTl9LHsieCI6Njc4LCJ5Ijo1OTl9LHsieCI6ODMzLCJ5Ijo1OTl9LHsieCI6OTg4LCJ5Ijo1OTl9LHsieCI6MTAxMywieSI6NTk5fSx7IngiOjEwMzgsInkiOjU5OX0seyJ4IjoxMDg1LjU4MjIzNjg0MjEwNTIsInkiOjYxMH1d" marker-end="url(#mermaid-svg_flowchart-v2-pointEnd)"/><path d="M257.453,643L267.544,647.167C277.635,651.333,297.818,659.667,312.076,663.833C326.333,668,334.667,668,343,668C351.333,668,359.667,668,389.667,668C419.667,668,471.333,668,523,668C574.667,668,626.333,668,678,668C729.667,668,781.333,668,833,668C884.667,668,936.333,668,966.333,668C996.333,668,1004.667,668,1013,668C1021.333,668,1029.667,668,1040.974,666.653C1052.281,665.307,1066.562,662.613,1073.702,661.267L1080.843,659.92" id="L_O3_S3_0" class=" edge-thickness-normal edge-pattern-solid edge-thickness-normal edge-pattern-solid flowchart-link" style=";" data-edge="true" data-et="edge" data-id="L_O3_S3_0" data-points="W3sieCI6MjU3LjQ1MzEyNSwieSI6NjQzfSx7IngiOjMxOCwieSI6NjY4fSx7IngiOjM0MywieSI6NjY4fSx7IngiOjM2OCwieSI6NjY4fSx7IngiOjUyMywieSI6NjY4fSx7IngiOjY3OCwieSI6NjY4fSx7IngiOjgzMywieSI6NjY4fSx7IngiOjk4OCwieSI6NjY4fSx7IngiOjEwMTMsInkiOjY2OH0seyJ4IjoxMDM4LCJ5Ijo2Njh9LHsieCI6MTA4NC43NzM0Mzc1LCJ5Ijo2NTkuMTc4ODQ5ODA5ODg2fV0=" marker-end="url(#mermaid-svg_flowchart-v2-pointEnd)"/><path d="M1332.375,161L1338.104,161C1343.833,161,1355.292,161,1365.188,261.833C1375.083,362.667,1383.417,564.333,1391.096,665.869C1398.776,767.405,1405.802,768.81,1409.315,769.513L1412.828,770.216" id="L_S1_A1_0" class=" edge-thickness-normal edge-pattern-solid edge-thickness-normal edge-pattern-solid flowchart-link" style=";" data-edge="true" data-et="edge" data-id="L_S1_A1_0" data-points="W3sieCI6MTMzMi4zNzUsInkiOjE2MX0seyJ4IjoxMzY2Ljc1LCJ5IjoxNjF9LHsieCI6MTM5MS43NSwieSI6NzY2fSx7IngiOjE0MTYuNzUsInkiOjc3MX1d" marker-end="url(#mermaid-svg_flowchart-v2-pointEnd)"/><path d="M1319.977,637L1327.772,637C1335.568,637,1351.159,637,1363.121,676.333C1375.083,715.667,1383.417,794.333,1392.215,835.579C1401.012,876.824,1410.275,880.649,1414.906,882.561L1419.537,884.473" id="L_S3_A2_0" class=" edge-thickness-normal edge-pattern-solid edge-thickness-normal edge-pattern-solid flowchart-link" style=";" data-edge="true" data-et="edge" data-id="L_S3_A2_0" data-points="W3sieCI6MTMxOS45NzY1NjI1LCJ5Ijo2Mzd9LHsieCI6MTM2Ni43NSwieSI6NjM3fSx7IngiOjEzOTEuNzUsInkiOjg3M30seyJ4IjoxNDIzLjIzNDM3NSwieSI6ODg2fV0=" marker-end="url(#mermaid-svg_flowchart-v2-pointEnd)"/><path d="M1341.75,943L1345.917,943C1350.083,943,1358.417,943,1366.75,943C1375.083,943,1383.417,943,1391.084,942.864C1398.751,942.729,1405.752,942.458,1409.252,942.322L1412.753,942.187" id="L_A3_A2_0" class=" edge-thickness-normal edge-pattern-solid edge-thickness-normal edge-pattern-solid flowchart-link" style=";" data-edge="true" data-et="edge" data-id="L_A3_A2_0" data-points="W3sieCI6MTM0MS43NSwieSI6OTQzfSx7IngiOjEzNjYuNzUsInkiOjk0M30seyJ4IjoxMzkxLjc1LCJ5Ijo5NDN9LHsieCI6MTQxNi43NSwieSI6OTQyLjAzMjI1ODA2NDUxNjF9XQ==" marker-end="url(#mermaid-svg_flowchart-v2-pointEnd)"/><path d="M1332.375,513L1338.104,513C1343.833,513,1355.292,513,1365.188,569.667C1375.083,626.333,1383.417,739.667,1394.799,793.727C1406.181,847.786,1420.611,842.573,1427.826,839.966L1435.042,837.359" id="L_S2_A1_0" class=" edge-thickness-normal edge-pattern-solid edge-thickness-normal edge-pattern-solid flowchart-link" style=";" data-edge="true" data-et="edge" data-id="L_S2_A1_0" data-points="W3sieCI6MTMzMi4zNzUsInkiOjUxM30seyJ4IjoxMzY2Ljc1LCJ5Ijo1MTN9LHsieCI6MTM5MS43NSwieSI6ODUzfSx7IngiOjE0MzguODAzNTcxNDI4NTcxMywieSI6ODM2fV0=" marker-end="url(#mermaid-svg_flowchart-v2-pointEnd)"/><path d="M1676.75,797L1680.917,797C1685.083,797,1693.417,797,1701.75,797C1710.083,797,1718.417,797,1726.75,797C1735.083,797,1743.417,797,1747.583,797L1751.75,797" id="L_A1_VERIFY_0" class=" edge-thickness-normal edge-pattern-dotted edge-thickness-normal edge-pattern-solid flowchart-link" style=";" data-edge="true" data-et="edge" data-id="L_A1_VERIFY_0" data-points="W3sieCI6MTY3Ni43NSwieSI6Nzk3fSx7IngiOjE3MDEuNzUsInkiOjc5N30seyJ4IjoxNzI2Ljc1LCJ5Ijo3OTd9LHsieCI6MTc1MS43NSwieSI6Nzk3fV0="/></g><g class="edgeLabels"><g class="edgeLabel"><g class="label" data-id="L_O1_T1_0" transform="translate(0, 0)"><foreignObject width="0" height="0"><div xmlns="http://www.w3.org/1999/xhtml" class="labelBkg" style="display: table-cell; white-space: nowrap; line-height: 1.5; max-width: 200px; text-align: center;"><span class="edgeLabel "></span></div></foreignObject></g></g><g class="edgeLabel"><g class="label" data-id="L_O2_T2_0" transform="translate(0, 0)"><foreignObject width="0" height="0"><div xmlns="http://www.w3.org/1999/xhtml" class="labelBkg" style="display: table-cell; white-space: nowrap; line-height: 1.5; max-width: 200px; text-align: center;"><span class="edgeLabel "></span></div></foreignObject></g></g><g class="edgeLabel"><g class="label" data-id="L_O3_T3_0" transform="translate(0, 0)"><foreignObject width="0" height="0"><div xmlns="http://www.w3.org/1999/xhtml" class="labelBkg" style="display: table-cell; white-space: nowrap; line-height: 1.5; max-width: 200px; text-align: center;"><span class="edgeLabel "></span></div></foreignObject></g></g><g class="edgeLabel"><g class="label" data-id="L_T1_T4_0" transform="translate(0, 0)"><foreignObject width="0" height="0"><div xmlns="http://www.w3.org/1999/xhtml" class="labelBkg" style="display: table-cell; white-space: nowrap; line-height: 1.5; max-width: 200px; text-align: center;"><span class="edgeLabel "></span></div></foreignObject></g></g><g class="edgeLabel"><g class="label" data-id="L_T2_T4_0" transform="translate(0, 0)"><foreignObject width="0" height="0"><div xmlns="http://www.w3.org/1999/xhtml" class="labelBkg" style="display: table-cell; white-space: nowrap; line-height: 1.5; max-width: 200px; text-align: center;"><span class="edgeLabel "></span></div></foreignObject></g></g><g class="edgeLabel"><g class="label" data-id="L_T3_T4_0" transform="translate(0, 0)"><foreignObject width="0" height="0"><div xmlns="http://www.w3.org/1999/xhtml" class="labelBkg" style="display: table-cell; white-space: nowrap; line-height: 1.5; max-width: 200px; text-align: center;"><span class="edgeLabel "></span></div></foreignObject></g></g><g class="edgeLabel"><g class="label" data-id="L_T4_S1_0" transform="translate(0, 0)"><foreignObject width="0" height="0"><div xmlns="http://www.w3.org/1999/xhtml" class="labelBkg" style="display: table-cell; white-space: nowrap; line-height: 1.5; max-width: 200px; text-align: center;"><span class="edgeLabel "></span></div></foreignObject></g></g><g class="edgeLabel"><g class="label" data-id="L_O1_S2_0" transform="translate(0, 0)"><foreignObject width="0" height="0"><div xmlns="http://www.w3.org/1999/xhtml" class="labelBkg" style="display: table-cell; white-space: nowrap; line-height: 1.5; max-width: 200px; text-align: center;"><span class="edgeLabel "></span></div></foreignObject></g></g><g class="edgeLabel"><g class="label" data-id="L_O2_S2_0" transform="translate(0, 0)"><foreignObject width="0" height="0"><div xmlns="http://www.w3.org/1999/xhtml" class="labelBkg" style="display: table-cell; white-space: nowrap; line-height: 1.5; max-width: 200px; text-align: center;"><span class="edgeLabel "></span></div></foreignObject></g></g><g class="edgeLabel"><g class="label" data-id="L_O3_S2_0" transform="translate(0, 0)"><foreignObject width="0" height="0"><div xmlns="http://www.w3.org/1999/xhtml" class="labelBkg" style="display: table-cell; white-space: nowrap; line-height: 1.5; max-width: 200px; text-align: center;"><span class="edgeLabel "></span></div></foreignObject></g></g><g class="edgeLabel"><g class="label" data-id="L_O1_S3_0" transform="translate(0, 0)"><foreignObject width="0" height="0"><div xmlns="http://www.w3.org/1999/xhtml" class="labelBkg" style="display: table-cell; white-space: nowrap; line-height: 1.5; max-width: 200px; text-align: center;"><span class="edgeLabel "></span></div></foreignObject></g></g><g class="edgeLabel"><g class="label" data-id="L_O2_S3_0" transform="translate(0, 0)"><foreignObject width="0" height="0"><div xmlns="http://www.w3.org/1999/xhtml" class="labelBkg" style="display: table-cell; white-space: nowrap; line-height: 1.5; max-width: 200px; text-align: center;"><span class="edgeLabel "></span></div></foreignObject></g></g><g class="edgeLabel"><g class="label" data-id="L_O3_S3_0" transform="translate(0, 0)"><foreignObject width="0" height="0"><div xmlns="http://www.w3.org/1999/xhtml" class="labelBkg" style="display: table-cell; white-space: nowrap; line-height: 1.5; max-width: 200px; text-align: center;"><span class="edgeLabel "></span></div></foreignObject></g></g><g class="edgeLabel"><g class="label" data-id="L_S1_A1_0" transform="translate(0, 0)"><foreignObject width="0" height="0"><div xmlns="http://www.w3.org/1999/xhtml" class="labelBkg" style="display: table-cell; white-space: nowrap; line-height: 1.5; max-width: 200px; text-align: center;"><span class="edgeLabel "></span></div></foreignObject></g></g><g class="edgeLabel"><g class="label" data-id="L_S3_A2_0" transform="translate(0, 0)"><foreignObject width="0" height="0"><div xmlns="http://www.w3.org/1999/xhtml" class="labelBkg" style="display: table-cell; white-space: nowrap; line-height: 1.5; max-width: 200px; text-align: center;"><span class="edgeLabel "></span></div></foreignObject></g></g><g class="edgeLabel"><g class="label" data-id="L_A3_A2_0" transform="translate(0, 0)"><foreignObject width="0" height="0"><div xmlns="http://www.w3.org/1999/xhtml" class="labelBkg" style="display: table-cell; white-space: nowrap; line-height: 1.5; max-width: 200px; text-align: center;"><span class="edgeLabel "></span></div></foreignObject></g></g><g class="edgeLabel"><g class="label" data-id="L_S2_A1_0" transform="translate(0, 0)"><foreignObject width="0" height="0"><div xmlns="http://www.w3.org/1999/xhtml" class="labelBkg" style="display: table-cell; white-space: nowrap; line-height: 1.5; max-width: 200px; text-align: center;"><span class="edgeLabel "></span></div></foreignObject></g></g><g class="edgeLabel"><g class="label" data-id="L_A1_VERIFY_0" transform="translate(0, 0)"><foreignObject width="0" height="0"><div xmlns="http://www.w3.org/1999/xhtml" class="labelBkg" style="display: table-cell; white-space: nowrap; line-height: 1.5; max-width: 200px; text-align: center;"><span class="edgeLabel "></span></div></foreignObject></g></g></g><g class="nodes"><g class="node default  " id="flowchart-O1-0" transform="translate(163, 348)"><rect class="basic label-container" style="" x="-130" y="-39" width="260" height="78"/><g class="label" style="" transform="translate(-100, -24)"><rect/><foreignObject width="200" height="48"><div xmlns="http://www.w3.org/1999/xhtml" style="display: table; white-space: break-spaces; line-height: 1.5; max-width: 200px; text-align: center; width: 200px;"><span class="nodeLabel "><p>URL fetched\nvia HTTP GET</p></span></div></foreignObject></g></g><g class="node default  " id="flowchart-O2-1" transform="translate(163, 476)"><rect class="basic label-container" style="" x="-130" y="-39" width="260" height="78"/><g class="label" style="" transform="translate(-100, -24)"><rect/><foreignObject width="200" height="48"><div xmlns="http://www.w3.org/1999/xhtml" style="display: table; white-space: break-spaces; line-height: 1.5; max-width: 200px; text-align: center; width: 200px;"><span class="nodeLabel "><p>SPARQL query\nexecuted against\nWikidata endpoint</p></span></div></foreignObject></g></g><g class="node default  " id="flowchart-O3-2" transform="translate(163, 604)"><rect class="basic label-container" style="" x="-130" y="-39" width="260" height="78"/><g class="label" style="" transform="translate(-100, -24)"><rect/><foreignObject width="200" height="48"><div xmlns="http://www.w3.org/1999/xhtml" style="display: table; white-space: break-spaces; line-height: 1.5; max-width: 200px; text-align: center; width: 200px;"><span class="nodeLabel "><p>Dataset downloaded\nvia API/URL</p></span></div></foreignObject></g></g><g class="node default  " id="flowchart-T1-3" transform="translate(523, 82)"><rect class="basic label-container" style="" x="-130" y="-39" width="260" height="78"/><g class="label" style="" transform="translate(-100, -24)"><rect/><foreignObject width="200" height="48"><div xmlns="http://www.w3.org/1999/xhtml" style="display: table; white-space: break-spaces; line-height: 1.5; max-width: 200px; text-align: center; width: 200px;"><span class="nodeLabel "><p>HTML to text blocks\n(BeautifulSoup)</p></span></div></foreignObject></g></g><g class="node default  " id="flowchart-T2-4" transform="translate(523, 210)"><rect class="basic label-container" style="" x="-130" y="-39" width="260" height="78"/><g class="label" style="" transform="translate(-100, -24)"><rect/><foreignObject width="200" height="48"><div xmlns="http://www.w3.org/1999/xhtml" style="display: table; white-space: break-spaces; line-height: 1.5; max-width: 200px; text-align: center; width: 200px;"><span class="nodeLabel "><p>SPARQL bindings\nto fact templates</p></span></div></foreignObject></g></g><g class="node default  " id="flowchart-T3-5" transform="translate(523, 338)"><rect class="basic label-container" style="" x="-130" y="-39" width="260" height="78"/><g class="label" style="" transform="translate(-100, -24)"><rect/><foreignObject width="200" height="48"><div xmlns="http://www.w3.org/1999/xhtml" style="display: table; white-space: break-spaces; line-height: 1.5; max-width: 200px; text-align: center; width: 200px;"><span class="nodeLabel "><p>CSV/JSON rows\nto structured facts</p></span></div></foreignObject></g></g><g class="node default  " id="flowchart-T4-6" transform="translate(833, 161)"><rect class="basic label-container" style="" x="-130" y="-51" width="260" height="102"/><g class="label" style="" transform="translate(-100, -36)"><rect/><foreignObject width="200" height="72"><div xmlns="http://www.w3.org/1999/xhtml" style="display: table; white-space: break-spaces; line-height: 1.5; max-width: 200px; text-align: center; width: 200px;"><span class="nodeLabel "><p>Decompose then\nResolve then\nClassify then\nValidate</p></span></div></foreignObject></g></g><g class="node default  " id="flowchart-S1-7" transform="translate(1202.375, 161)"><rect class="basic label-container" style="" x="-130" y="-51" width="260" height="102"/><g class="label" style="" transform="translate(-100, -36)"><rect/><foreignObject width="200" height="72"><div xmlns="http://www.w3.org/1999/xhtml" style="display: table; white-space: break-spaces; line-height: 1.5; max-width: 200px; text-align: center; width: 200px;"><span class="nodeLabel "><p>facts table\n(fact_text, domain,\nsource_id, confidence)</p></span></div></foreignObject></g></g><g class="node default  " id="flowchart-S2-8" transform="translate(1202.375, 513)"><rect class="basic label-container" style="" x="-130" y="-39" width="260" height="78"/><g class="label" style="" transform="translate(-100, -24)"><rect/><foreignObject width="200" height="48"><div xmlns="http://www.w3.org/1999/xhtml" style="display: table; white-space: break-spaces; line-height: 1.5; max-width: 200px; text-align: center; width: 200px;"><span class="nodeLabel "><p>sources table\n(name, url,\nsource_type, tier)</p></span></div></foreignObject></g></g><g class="node default  " id="flowchart-S3-9" transform="translate(1202.375, 637)"><rect class="basic label-container" style="" x="-117.6015625" y="-27" width="235.203125" height="54"/><g class="label" style="" transform="translate(-87.6015625, -12)"><rect/><foreignObject width="175.203125" height="24"><div xmlns="http://www.w3.org/1999/xhtml" style="display: table-cell; white-space: nowrap; line-height: 1.5; max-width: 200px; text-align: center;"><span class="nodeLabel "><p>Scraper log\n(data/logs/)</p></span></div></foreignObject></g></g><g class="node default  " id="flowchart-A1-10" transform="translate(1546.75, 797)"><rect class="basic label-container" style="" x="-130" y="-39" width="260" height="78"/><g class="label" style="" transform="translate(-100, -24)"><rect/><foreignObject width="200" height="48"><div xmlns="http://www.w3.org/1999/xhtml" style="display: table; white-space: break-spaces; line-height: 1.5; max-width: 200px; text-align: center; width: 200px;"><span class="nodeLabel "><p>source_id FK\nto source URL</p></span></div></foreignObject></g></g><g class="node default  " id="flowchart-A2-11" transform="translate(1546.75, 937)"><rect class="basic label-container" style="" x="-130" y="-51" width="260" height="102"/><g class="label" style="" transform="translate(-100, -36)"><rect/><foreignObject width="200" height="72"><div xmlns="http://www.w3.org/1999/xhtml" style="display: table; white-space: break-spaces; line-height: 1.5; max-width: 200px; text-align: center; width: 200px;"><span class="nodeLabel "><p>Log file records\nevery HTTP request\nand response code</p></span></div></foreignObject></g></g><g class="node default  " id="flowchart-A3-12" transform="translate(1202.375, 943)"><rect class="basic label-container" style="" x="-139.375" y="-39" width="278.75" height="78"/><g class="label" style="" transform="translate(-109.375, -24)"><rect/><foreignObject width="218.75" height="48"><div xmlns="http://www.w3.org/1999/xhtml" style="display: table; white-space: break-spaces; line-height: 1.5; max-width: 200px; text-align: center; width: 200px;"><span class="nodeLabel "><p>PROCESS_LOG.md\nrecords methodology\nand decisions</p></span></div></foreignObject></g></g><g class="node default  " id="flowchart-VERIFY-42" transform="translate(1881.75, 797)"><rect class="basic label-container" style="" x="-130" y="-75" width="260" height="150"/><g class="label" style="" transform="translate(-100, -60)"><rect/><foreignObject width="200" height="120"><div xmlns="http://www.w3.org/1999/xhtml" style="display: table; white-space: break-spaces; line-height: 1.5; max-width: 200px; text-align: center; width: 200px;"><span class="nodeLabel "><p>Any fact can be\nverified by:\n1. Look up source_id\n2. Visit source URL\n3. Confirm fact text\n   derived from content</p></span></div></foreignObject></g></g></g></g></g></svg>